<?xml version="1.0" encoding="UTF-8"?><svg id="Layer_1" xmlns="http://www.w3.org/2000/svg" viewBox="0 0 16 16"><defs><style>.cls-1{fill:#fff;}.cls-2{fill:#2c327c;}</style></defs><path class="cls-1" d="M1.17,.44V9.64l1.67,3.56s1.23,1.28,1.41,1.33,2.46,.82,2.6,.85,2.27,.24,2.41,.19,2.07-.82,2.07-.82l1.91-1.65,.99-1.77,.85-1.52-.15-3.23-.02-6.13H1.17Z"/><g><rect class="cls-2" x="4.25" y="4.64" width="1.05" height=".39"/><path class="cls-2" d="M.65,0V8.65c0,1.55,.48,2.98,1.3,4.17,.13,.19,.27,.37,.41,.54,1.35,1.61,3.37,2.64,5.64,2.64,2.03,0,3.86-.82,5.19-2.15,.15-.15,.29-.3,.43-.46,.15-.17,.29-.35,.41-.54,.83-1.19,1.31-2.63,1.31-4.19V0H.65ZM2.72,12.06l-.13-.17c-.6-.97-.94-2.11-.94-3.33V1.09H7.64V7.13L2.72,12.06Zm10.06,.69c-1.16,1.33-2.88,2.17-4.78,2.17s-3.61-.84-4.78-2.17l-.1-.14L7.98,7.74l4.88,4.88-.09,.12Zm1.58-4.18c0,1.22-.34,2.36-.94,3.33l-.14,.19-3.35-3.35v-1.77h1.7v-1.7h1.7v-1.7h1.03v5Zm0-5.99h-2.02v1.7h-1.7v1.7h-1.7v1.77l-.61-.61V1.09h6.04v1.48Z"/><g><polygon class="cls-2" points="8.48 12.07 6.57 13.98 5.87 13.28 7.07 12.07 5.87 10.87 6.57 10.17 8.48 12.07"/><rect class="cls-2" x="7.91" y="12.99" width="2.7" height=".99"/></g><path class="cls-2" d="M2.05,3.84V1.55h1.1c.21,0,.4,.03,.56,.1,.16,.07,.28,.17,.36,.3,.09,.13,.13,.28,.13,.46s-.04,.33-.13,.46c-.09,.13-.21,.23-.36,.3-.16,.07-.34,.11-.56,.11h-.67l.34-.33v.89h-.77Zm.77-.81l-.34-.35h.63c.11,0,.19-.02,.24-.07,.05-.05,.08-.11,.08-.2s-.03-.15-.08-.2c-.05-.05-.13-.07-.24-.07h-.63l.34-.35v1.24Z"/><path class="cls-2" d="M4.36,5.9c-.19,0-.36-.03-.51-.09-.16-.06-.29-.14-.41-.25-.11-.11-.2-.23-.27-.38-.06-.15-.1-.31-.1-.48s.03-.34,.1-.48c.06-.15,.15-.27,.27-.38,.12-.11,.25-.19,.41-.25s.33-.09,.52-.09c.23,0,.43,.04,.61,.11,.18,.08,.32,.19,.44,.33l-.49,.44c-.07-.08-.15-.15-.23-.19-.08-.04-.18-.06-.28-.06-.09,0-.16,.01-.23,.04-.07,.03-.13,.06-.18,.11s-.09,.11-.11,.18c-.03,.07-.04,.15-.04,.24s.01,.16,.04,.23c.03,.07,.06,.13,.11,.18s.11,.09,.17,.12,.14,.04,.22,.04c.09,0,.17-.01,.26-.04,.08-.03,.17-.08,.27-.15l.43,.53c-.14,.09-.3,.17-.48,.22-.18,.05-.35,.08-.52,.08Zm.33-.39v-.87h.67v.97l-.67-.1Z"/><path class="cls-2" d="M5.63,8.07v-2.29h.77v2.29h-.77Z"/></g></svg>